<svg width="27" height="27" viewBox="0 0 27 27" fill="none" xmlns="http://www.w3.org/2000/svg">
<path d="M24.9728 18.0821L18.9644 16.8811C18.5105 16.7903 17.8774 16.9829 17.5497 17.3095L16.4638 18.3954C16.031 18.8293 15.2772 18.8935 14.7824 18.5326C13.7895 17.8043 12.428 16.8224 11.3033 15.6978C10.1787 14.572 9.19683 13.2105 8.46847 12.2176C8.10761 11.7239 8.17292 10.969 8.60573 10.5362L9.69162 9.45028C10.0193 9.12263 10.2108 8.48947 10.12 8.03563L8.91899 2.02723C8.80498 1.45937 8.24376 1 7.66484 1H5.01486C3.8072 1 2.2896 2.85632 1.65201 3.7164C1.47933 3.94996 1.28783 4.37281 1.23913 4.65729C0.934722 6.45272 -0.175528 12.1634 7.33055 19.6705C14.8366 27.1766 20.5484 26.0653 22.3438 25.762C22.6283 25.7133 23.0511 25.5207 23.2836 25.3491C24.1426 24.7115 26 23.1939 26 21.9862V19.3374C26 18.7573 25.5395 18.195 24.9728 18.0821Z" stroke="#FE7439" stroke-width="2"/>
</svg>
