<svg width="32" height="27" viewBox="0 0 32 27" fill="none" xmlns="http://www.w3.org/2000/svg">
<path d="M11.7647 1.5L10 5.02941H3.6471C2.2784 5.02941 1.17651 6.13129 1.17651 7.5V23.0294C1.17651 24.3981 2.2784 25.5 3.6471 25.5H28.353C29.7217 25.5 30.8236 24.3981 30.8236 23.0294V7.5C30.8236 6.13129 29.7217 5.02941 28.353 5.02941H22L20.2353 1.5H11.7647ZM16 8.91176C19.5087 8.91176 22.353 11.7561 22.353 15.2647C22.353 18.7733 19.5087 21.6176 16 21.6176C12.4915 21.6176 9.6471 18.7733 9.6471 15.2647C9.6471 11.7561 12.4915 8.91176 16 8.91176Z" stroke="#FE7439" stroke-width="2"/>
</svg>
