<svg width="38" height="26" viewBox="0 0 38 26" fill="none" xmlns="http://www.w3.org/2000/svg">
<path d="M34.9784 4.11645L34.9785 4.1165L34.9869 4.10909C35.4014 3.74292 35.7904 3.6053 36.0163 3.6053C36.3491 3.6053 36.5656 3.71699 36.7059 3.86178C36.8515 4.012 36.9804 4.26711 36.998 4.65561L37 4.75517V20.7549C37 21.1802 36.87 21.4598 36.7211 21.6222C36.5796 21.7764 36.3591 21.8947 36.0163 21.8947C35.8105 21.8947 35.4632 21.7806 35.0776 21.4678L34.9796 21.3846L34.9723 21.3783L29.7275 16.8345V8.65104L34.9784 4.11645ZM21.8539 1.25C23.1834 1.25 24.0814 1.62348 24.6543 2.19346C25.2288 2.76509 25.6073 3.66471 25.6346 4.97774L25.6362 5.13499V20.3855C25.6362 21.7004 25.2531 22.6244 24.6605 23.225C24.0675 23.8259 23.1489 24.2203 21.8487 24.2484L21.6949 24.25H5.20027C3.8691 24.25 2.92261 23.875 2.3073 23.2911C1.69694 22.7119 1.29464 21.8154 1.2658 20.5328L1.26416 20.3801V5.12993C1.26416 3.82593 1.66955 2.89494 2.28419 2.28372C2.90216 1.6692 3.83098 1.27943 5.05956 1.25159L5.20569 1.25H21.8539Z" stroke="#FE7439" stroke-width="2"/>
</svg>
